<svg width="100" height="100" viewBox="0 0 100 100" fill="none" xmlns="http://www.w3.org/2000/svg">
<path d="M0 25C0 11.1929 11.1929 0 25 0H75C88.8071 0 100 11.1929 100 25V75C100 88.8071 88.8071 100 75 100H25C11.1929 100 0 88.8071 0 75V25Z" fill="#B90E0A"/>
<path d="M6.50117 76.075C7.20117 73.675 7.87617 70.95 8.52617 67.9C9.17617 64.8 9.77617 61.65 10.3262 58.45C10.9262 55.25 11.4762 52.275 11.9762 49.525C12.4762 46.775 12.8762 44.5 13.1762 42.7C13.7262 39.35 14.2512 35.975 14.7512 32.575C15.3012 29.125 15.8262 25.625 16.3262 22.075L41.4512 20.8L39.2762 30.025H27.5012L25.1762 43.375C25.9762 43.325 26.7262 43.3 27.4262 43.3C28.1762 43.3 28.9012 43.3 29.6012 43.3H33.1262C33.7262 43.3 34.2512 43.3 34.7012 43.3C35.1512 43.3 35.5512 43.275 35.9012 43.225C35.8512 43.925 35.7762 44.625 35.6762 45.325C35.5762 45.975 35.4762 46.65 35.3762 47.35L34.7012 51.4C33.6512 51.4 32.1262 51.375 30.1262 51.325C28.1762 51.225 26.1012 51.15 23.9012 51.1L20.4512 73.225C19.6012 73.375 18.7512 73.525 17.9012 73.675C17.1012 73.825 16.2762 74 15.4262 74.2C14.0262 74.45 12.5012 74.75 10.8512 75.1C9.20117 75.45 7.75117 75.775 6.50117 76.075Z" fill="white"/>
<path d="M41.0779 75.7L44.0029 62.2C44.3029 60.7 44.6779 58.875 45.1279 56.725C45.5779 54.525 46.0279 52.225 46.4779 49.825C46.9779 47.425 47.4279 45.15 47.8279 43C48.2279 40.85 48.5529 39.025 48.8029 37.525C47.5529 37.625 46.3779 37.775 45.2779 37.975L42.3529 38.425C41.3529 38.625 40.4779 38.775 39.7279 38.875C39.7779 38.525 39.8279 38.075 39.8779 37.525C39.9779 36.975 40.0779 36.35 40.1779 35.65L40.8529 31.3C40.9529 30.45 41.0529 29.575 41.1529 28.675C41.3029 27.725 41.4529 26.75 41.6029 25.75C42.1529 25.65 42.8279 25.525 43.6279 25.375C44.4779 25.175 45.4029 24.975 46.4029 24.775L53.3779 23.65C54.8279 23.4 56.4529 23.15 58.2529 22.9C60.0529 22.6 62.0279 22.275 64.1779 21.925C62.1779 30.325 60.4029 38.675 58.8529 46.975C57.3029 55.275 55.8279 63.875 54.4279 72.775C53.2779 73.125 51.9529 73.475 50.4529 73.825C48.9529 74.175 47.4779 74.475 46.0279 74.725C45.2279 74.925 44.4029 75.1 43.5529 75.25C42.7529 75.4 41.9279 75.55 41.0779 75.7Z" fill="white"/>
<path d="M74.1764 75.925C71.1264 75.925 68.6514 75.2 66.7514 73.75C64.8514 72.25 63.4514 70.275 62.5514 67.825C61.7014 65.325 61.2764 62.575 61.2764 59.575C61.2764 55.725 61.9014 51.55 63.1514 47.05C64.4514 42.55 66.3514 38.25 68.8514 34.15C71.2514 30.3 74.0014 27.125 77.1014 24.625C80.2014 22.125 83.4264 20.875 86.7764 20.875C89.2764 20.875 91.3264 21.7 92.9264 23.35C94.5264 24.95 95.7014 27.125 96.4514 29.875C97.2514 32.625 97.6514 35.7 97.6514 39.1C97.6514 43.3 97.1264 47.5 96.0764 51.7C95.0764 55.9 93.5764 59.85 91.5764 63.55C89.5764 67.2 87.0764 70.175 84.0764 72.475C81.1264 74.775 77.8264 75.925 74.1764 75.925ZM76.4264 63.325C78.3264 63.325 80.0264 62.725 81.5264 61.525C83.0764 60.275 84.4014 58.675 85.5014 56.725C86.6014 54.775 87.4514 52.7 88.0514 50.5C88.6514 48.3 88.9514 46.225 88.9514 44.275C88.9514 42.125 88.5264 40.3 87.6764 38.8C86.8764 37.3 85.5764 36.55 83.7764 36.55C82.3264 36.55 80.9264 37.25 79.5764 38.65C78.2264 40 77.0264 41.75 75.9764 43.9C74.9264 46 74.0764 48.25 73.4264 50.65C72.8264 53 72.5264 55.15 72.5264 57.1C72.5264 58.95 72.8264 60.45 73.4264 61.6C74.0264 62.75 75.0264 63.325 76.4264 63.325Z" fill="white"/>
</svg>
