<svg width="500" height="498" viewBox="0 0 500 498" fill="none" xmlns="http://www.w3.org/2000/svg">
<g filter="url(#filter0_d_207_2)">
<path d="M481 417C493.5 448.5 489.5 484.5 489.5 484.5H429.875H370.25H310.625H251H133H71H10C11.1215 418.847 23.737 393.11 65.5 365H71H133L175.5 332.116C148.181 306.956 126.471 269.817 113.891 229.5C102.962 194.475 98.9227 157.052 104.082 123C113.958 57.8228 157.535 4.99997 251 5C344.465 5.00003 388.042 57.8228 397.918 123C403.077 157.052 399.038 194.475 388.109 229.5C373.602 275.993 346.954 318.26 313.563 342.804C320.294 338.87 324.5 336 324.5 336L370.25 361.514L376.5 365H429.875H435.5C435.5 365 468.5 385.5 481 417Z" fill="white"/>
<path d="M251 365C232.17 364.447 215.174 359.489 199 349.831M251 365C269.83 364.447 286.827 359.489 303 349.831M251 365V484.5M251 365C282 365 324.5 336 324.5 336L370.25 361.514M113.891 229.5C102.962 194.475 98.9227 157.052 104.082 123M113.891 229.5C151.87 251.052 184.307 264.738 215 270.794M113.891 229.5C126.471 269.817 148.181 306.956 175.5 332.116M388.109 229.5C399.038 194.475 403.077 157.052 397.918 123M388.109 229.5C350.48 250.825 318.219 264.674 287.304 270.794M388.109 229.5C372.102 280.799 341.316 326.952 303 349.831M104.082 123C113.958 57.8228 157.535 4.99997 251 5C344.465 5.00003 388.042 57.8228 397.918 123M104.082 123C218.824 164.068 283.173 164.74 397.918 123M71 484.5H10C11.1215 418.847 23.737 393.11 65.5 365H71M71 484.5V365M71 484.5H133M71 365H133M370.25 361.514L376.5 365H429.875M370.25 361.514V484.5M429.875 365H435.5C435.5 365 468.5 385.5 481 417C493.5 448.5 489.5 484.5 489.5 484.5H429.875M429.875 365V484.5M199 349.831L215 270.794M199 349.831C190.798 344.934 182.941 338.969 175.5 332.116M215 270.794C239.569 275.643 263.021 275.602 287.304 270.794M287.304 270.794L303 349.831M133 365L175.5 332.116M133 365V484.5M429.875 484.5H370.25M370.25 484.5H310.625H251M251 484.5H133M213.5 88.5005H226.5V98.5005H213.5V88.5005ZM273.5 88.5005H285.5V98.5005H273.5V88.5005Z" stroke="#7F7F7F" stroke-width="10" stroke-linecap="round"/>
</g>
<defs>
<filter id="filter0_d_207_2" x="0.913818" y="0" width="498.195" height="497.5" filterUnits="userSpaceOnUse" color-interpolation-filters="sRGB">
<feFlood flood-opacity="0" result="BackgroundImageFix"/>
<feColorMatrix in="SourceAlpha" type="matrix" values="0 0 0 0 0 0 0 0 0 0 0 0 0 0 0 0 0 0 127 0" result="hardAlpha"/>
<feOffset dy="4"/>
<feGaussianBlur stdDeviation="2"/>
<feComposite in2="hardAlpha" operator="out"/>
<feColorMatrix type="matrix" values="0 0 0 0 0 0 0 0 0 0 0 0 0 0 0 0 0 0 0.25 0"/>
<feBlend mode="normal" in2="BackgroundImageFix" result="effect1_dropShadow_207_2"/>
<feBlend mode="normal" in="SourceGraphic" in2="effect1_dropShadow_207_2" result="shape"/>
</filter>
</defs>
</svg>
