<svg width="492" height="490" viewBox="0 0 492 490" fill="none" xmlns="http://www.w3.org/2000/svg">
<path d="M477 417C489.5 448.5 485.5 484.5 485.5 484.5H425.875H366.25H306.625H247H129H67H6C7.12149 418.847 19.737 393.11 61.5 365H67H129L171.5 332.116C144.181 306.956 122.471 269.817 109.891 229.5C98.9617 194.475 94.9227 157.052 100.082 123C109.958 57.8228 153.535 4.99997 247 5C340.465 5.00003 384.042 57.8228 393.918 123C399.077 157.052 395.038 194.475 384.109 229.5C369.602 275.993 342.954 318.26 309.563 342.804C316.294 338.87 320.5 336 320.5 336L366.25 361.514L372.5 365H425.875H431.5C431.5 365 464.5 385.5 477 417Z" fill="white"/>
<path d="M247 365C228.17 364.447 211.174 359.489 195 349.831M247 365C265.83 364.447 282.827 359.489 299 349.831M247 365V484.5M247 365C278 365 320.5 336 320.5 336L366.25 361.514M109.891 229.5C98.9617 194.475 94.9227 157.052 100.082 123M109.891 229.5C147.87 251.052 180.307 264.738 211 270.794M109.891 229.5C122.471 269.817 144.181 306.956 171.5 332.116M384.109 229.5C395.038 194.475 399.077 157.052 393.918 123M384.109 229.5C346.48 250.825 314.219 264.674 283.304 270.794M384.109 229.5C368.102 280.799 337.316 326.952 299 349.831M100.082 123C109.958 57.8228 153.535 4.99997 247 5C340.465 5.00003 384.042 57.8228 393.918 123M100.082 123C214.824 164.068 279.173 164.74 393.918 123M67 484.5H6C7.12149 418.847 19.737 393.11 61.5 365H67M67 484.5V365M67 484.5H129M67 365H129M366.25 361.514L372.5 365H425.875M366.25 361.514V484.5M425.875 365H431.5C431.5 365 464.5 385.5 477 417C489.5 448.5 485.5 484.5 485.5 484.5H425.875M425.875 365V484.5M195 349.831L211 270.794M195 349.831C186.798 344.934 178.941 338.969 171.5 332.116M211 270.794C235.569 275.643 259.021 275.602 283.304 270.794M283.304 270.794L299 349.831M129 365L171.5 332.116M129 365V484.5M425.875 484.5H366.25M366.25 484.5H306.625H247M247 484.5H129M209.5 88.5005H222.5V98.5005H209.5V88.5005ZM269.5 88.5005H281.5V98.5005H269.5V88.5005Z" stroke="black" stroke-width="10" stroke-linecap="round"/>
</svg>
